<svg xmlns="http://www.w3.org/2000/svg" version="1.1" xmlns:xlink="http://www.w3.org/1999/xlink" xmlns:svgjs="http://svgjs.dev/svgjs" width="1000" height="237" viewBox="0 0 1000 237"><g transform="matrix(1,0,0,1,-0.6060605887288943,-0.20021008452344802)"><svg viewBox="0 0 396 94" data-background-color="#ffffff" preserveAspectRatio="xMidYMid meet" height="237" width="1000" xmlns="http://www.w3.org/2000/svg" xmlns:xlink="http://www.w3.org/1999/xlink"><g id="tight-bounds" transform="matrix(1,0,0,1,0.24000000686339718,0.07940821917807739)"><svg viewBox="0 0 395.52 93.84118356164383" height="93.84118356164383" width="395.52"><g><svg viewBox="0 0 395.52 93.84118356164383" height="93.84118356164383" width="395.52"><g><svg viewBox="0 0 395.52 93.84118356164383" height="93.84118356164383" width="395.52"><g><svg viewBox="0 0 395.52 93.84118356164383" height="93.84118356164383" width="395.52"><g><svg viewBox="0 0 395.52 93.84118356164383" height="93.84118356164383" width="395.52"><g transform="matrix(1,0,0,1,0,0)"><svg width="395.52" viewBox="0.49000000953674316 -50.59000015258789 274.7900085449219 63.43000030517578" height="93.84118356164383" data-palette-color="#8bc53f"><g class="undefined-text-0" data-fill-palette-color="primary" id="text-0"><path d="M56.2-42.53L56.2-42.53Q56.1-42.29 55.81-41.65 55.52-41.02 55.52-40.82L55.52-40.82Q55.52-40.43 55.49-39.82 55.47-39.21 55.86-39.06L55.86-39.06Q55.32-37.94 55.2-36.79 55.08-35.64 55.08-34.45 55.08-33.25 55.03-32.06 54.98-30.86 54.64-29.74L54.64-29.74Q54.83-29.44 54.76-29.03 54.69-28.61 54.98-28.37L54.98-28.37Q54.74-27.98 54.69-27.61 54.64-27.25 54.64-26.86L54.64-26.86Q54.64-26.07 54.79-25.34L54.79-25.34Q54.25-24.56 54.27-23.61 54.3-22.66 54.3-21.68L54.3-21.68Q54.3-20.85 54.08-20.07 53.86-19.29 53.86-18.46L53.86-18.46Q53.86-18.21 53.91-18.02 53.96-17.82 53.96-17.58L53.96-17.58Q53.96-17.33 53.78-17.26 53.61-17.19 53.61-16.8L53.61-16.8Q53.61-14.99 53.37-13.31 53.13-11.62 52.76-9.99 52.39-8.35 51.95-6.69 51.51-5.03 51.17-3.32L51.17-3.32Q50.63-2.73 50.37-2 50.1-1.27 49.41-0.83L49.41-0.83Q48.78 0.78 47.83 2.1 46.88 3.42 45.73 4.59 44.58 5.76 43.36 6.86 42.14 7.96 40.97 9.13L40.97 9.13Q40.48 9.13 40.01 9.16 39.55 9.18 39.06 9.18L39.06 9.18Q37.99 9.18 36.91 9.08 35.84 8.98 34.86 8.74L34.86 8.74Q34.67 8.06 34.11 7.84 33.54 7.62 33.11 7.18L33.11 7.18Q32.62 6.74 32.37 6.2 32.13 5.66 31.35 5.47L31.35 5.47Q31.1 4.74 30.59 3.76 30.08 2.78 29.59 1.76 29.1 0.73 28.74-0.22 28.37-1.17 28.37-1.86L28.37-1.86Q28.37-2.1 28.44-2.32 28.52-2.54 28.56-2.78L28.56-2.78Q28.27-3.13 28.17-3.66 28.08-4.2 28.05-4.76 28.03-5.32 27.93-5.83 27.83-6.35 27.49-6.64L27.49-6.64Q26.9-6.25 26.56-5.66 26.22-5.08 25.95-4.39 25.68-3.71 25.44-3.03 25.2-2.34 24.85-1.76L24.85-1.76Q24.17-1.22 23.66-0.54 23.14 0.15 22.63 0.85 22.12 1.56 21.53 2.17 20.95 2.78 20.17 3.17L20.17 3.17Q19.97 4.05 19.46 4.66 18.95 5.27 18.36 5.79 17.77 6.3 17.24 6.86 16.7 7.42 16.46 8.25L16.46 8.25Q15.63 8.64 14.6 9.4 13.57 10.16 12.52 10.94 11.47 11.72 10.42 12.28 9.38 12.84 8.59 12.84L8.59 12.84Q7.96 12.84 7.4 12.72 6.84 12.6 6.25 12.45 5.66 12.3 5.08 12.18 4.49 12.06 3.86 12.11L3.86 12.11Q2.93 11.13 2.44 9.89 1.95 8.64 1.22 7.57L1.22 7.57Q0.98 6.1 0.73 4.61 0.49 3.13 0.49 1.66L0.49 1.66Q0.49 0.83 0.68 0.12 0.88-0.59 0.88-1.32L0.88-1.32Q0.88-1.56 0.81-1.78 0.73-2 0.68-2.25L0.68-2.25Q1.03-2.93 1.22-3.69 1.42-4.44 1.54-5.22 1.66-6.01 1.81-6.76 1.95-7.52 2.25-8.2L2.25-8.2Q2.34-8.79 1.9-9.08L1.9-9.08Q2.25-9.42 2.34-9.81 2.44-10.21 2.47-10.6 2.49-10.99 2.49-11.43 2.49-11.87 2.59-12.26L2.59-12.26Q2.64-12.45 2.83-12.84L2.83-12.84 3.27-13.67Q3.52-14.11 3.69-14.48 3.86-14.84 3.86-15.04L3.86-15.04Q3.86-15.38 3.66-15.77L3.66-15.77Q3.86-16.75 4.32-17.68 4.79-18.6 5.03-19.58L5.03-19.58Q5.27-20.56 5.32-21.31 5.37-22.07 5.76-23.1L5.76-23.1Q5.81-23.19 5.81-23.34L5.81-23.34Q5.81-23.54 5.66-23.58 5.52-23.63 5.42-23.78L5.42-23.78Q6.01-24.9 6.32-26.2 6.64-27.49 6.86-28.86 7.08-30.22 7.28-31.57 7.47-32.91 7.86-34.13L7.86-34.13Q7.71-35.11 7.62-36.16 7.52-37.21 7.52-38.18L7.52-38.18Q7.52-39.31 7.74-40.48 7.96-41.65 8.74-42.53L8.74-42.53Q9.13-42.53 9.59-42.58 10.06-42.63 10.45-42.63L10.45-42.63Q11.04-42.63 11.72-42.33L11.72-42.33Q12.06-40.77 12.6-39.26 13.13-37.74 13.13-36.04L13.13-36.04Q13.13-35.21 12.94-34.38L12.94-34.38 12.6-32.76Q12.45-31.98 12.35-31.18 12.26-30.37 12.4-29.59L12.4-29.59Q11.87-28.86 11.79-27.91 11.72-26.95 11.72-26.12L11.72-26.12Q11.23-25.44 10.99-24.76 10.74-24.07 10.62-23.36 10.5-22.66 10.4-21.92 10.3-21.19 10.16-20.46L10.16-20.46Q10.06-20.21 9.84-19.87 9.62-19.53 9.62-19.38L9.62-19.38Q9.62-19.04 9.81-18.7L9.81-18.7Q9.72-18.55 9.62-18.48 9.52-18.41 9.47-18.21L9.47-18.21Q9.33-17.68 9.25-17.07 9.18-16.46 9.03-15.92L9.03-15.92Q8.79-14.7 8.37-13.53 7.96-12.35 7.52-11.18L7.52-11.18Q7.52-10.21 7.45-9.62 7.37-9.03 7.25-8.57 7.13-8.11 6.96-7.59 6.79-7.08 6.64-6.3L6.64-6.3Q6.49-5.57 6.37-4.49 6.25-3.42 6.13-2.27 6.01-1.12 5.96-0.02 5.91 1.07 5.91 1.86L5.91 1.86Q5.91 3.27 6.18 4.61 6.45 5.96 7.13 7.18L7.13 7.18 7.96 7.18Q8.25 7.18 8.59 7.2 8.94 7.23 9.23 7.37L9.23 7.37Q9.57 7.28 9.57 7.08L9.57 7.08 9.57 6.69Q9.57 6.54 9.81 6.3L9.81 6.3 10.16 6.35Q10.64 6.35 11.06 6.2 11.47 6.05 11.91 5.81L11.91 5.81Q12.84 4.54 14.09 3.66 15.33 2.78 16.31 1.61L16.31 1.61Q16.55 1.22 16.46 0.68L16.46 0.68Q17.04 0.59 17.36 0.24 17.68-0.1 17.97-0.49 18.26-0.88 18.58-1.25 18.9-1.61 19.43-1.76L19.43-1.76Q19.68-2.2 19.87-2.71 20.07-3.22 20.29-3.71 20.51-4.2 20.83-4.61 21.14-5.03 21.68-5.27L21.68-5.27Q22.51-7.13 23.1-9.11 23.68-11.08 24.85-12.74L24.85-12.74Q24.85-13.38 24.9-13.92 24.95-14.45 24.85-15.04L24.85-15.04Q26.07-16.7 26.42-18.51 26.76-20.31 26.76-22.31L26.76-22.31Q26.76-23.97 27.86-24.61 28.96-25.24 30.47-25.24L30.47-25.24 30.96-25.24Q31.25-25.24 31.49-25.2L31.49-25.2Q31.59-24.85 31.86-24.68 32.13-24.51 32.42-24.32L32.42-24.32 32.42-24.02Q32.42-23.34 32.25-22.78 32.08-22.22 32.08-21.58L32.08-21.58Q32.08-21.29 32.18-20.8L32.18-20.8Q32.67-19.38 32.93-18.21 33.2-17.04 33.2-15.48L33.2-15.48Q33.2-14.16 33.08-12.82 32.96-11.47 32.76-10.16L32.76-10.16Q33.06-9.62 33.06-9.03L33.06-9.03Q33.06-8.64 32.98-8.23 32.91-7.81 32.91-7.42L32.91-7.42Q32.91-6.59 33.18-5.79 33.45-4.98 33.76-4.2 34.08-3.42 34.33-2.64 34.57-1.86 34.52-1.07L34.52-1.07Q35.35-0.05 36.01 1.05 36.67 2.15 37.65 2.98L37.65 2.98Q38.04 3.08 38.28 3.08L38.28 3.08Q38.57 3.08 38.77 3 38.96 2.93 39.14 2.86 39.31 2.78 39.5 2.76 39.7 2.73 40.09 2.78L40.09 2.78Q40.97 2.15 41.7 1.34 42.43 0.54 43.09-0.29 43.75-1.12 44.43-2 45.12-2.88 45.85-3.66L45.85-3.66Q47.27-7.18 48.14-10.69 49.02-14.21 49.22-18.02L49.22-18.02Q49.22-18.55 49.46-18.55 49.71-18.55 49.9-18.9L49.9-18.9 49.9-20.26Q49.9-21.83 50.07-23.39 50.24-24.95 50.78-26.46L50.78-26.46Q50.63-27.05 50.63-27.64L50.63-27.64Q50.63-28.91 50.85-30.1 51.07-31.3 51.07-32.52L51.07-32.52Q51.07-33.15 50.95-33.81 50.83-34.47 50.44-35.01L50.44-35.01 50.39-35.3Q50.39-35.6 50.61-35.79 50.83-35.99 50.93-36.23L50.93-36.23Q50.68-36.87 50.76-37.55 50.83-38.23 50.83-38.92L50.83-38.92Q50.83-39.31 50.73-39.75 50.63-40.19 50.24-40.43L50.24-40.43Q50.68-40.92 50.88-41.7 51.07-42.48 51.15-43.36 51.22-44.24 51.22-45.09 51.22-45.95 51.32-46.53L51.32-46.53Q51.76-47.02 52.32-47.39 52.88-47.75 53.56-47.75L53.56-47.75Q54.44-47.75 54.83-47.14 55.22-46.53 55.42-45.68 55.62-44.82 55.74-43.95 55.86-43.07 56.2-42.53ZM89.74-31.05L89.74-31.05 89.74-30.86Q89.4-30.76 89.4-30.37L89.4-30.37Q88.86-30.13 88.28-30 87.69-29.88 87.16-29.64L87.16-29.64Q86.62-29.69 86.06-29.71 85.5-29.74 84.96-29.74L84.96-29.74Q83.49-29.74 82.03-29.64 80.56-29.54 79.1-29.64L79.1-29.64Q78.42-29.25 77.61-29.03 76.8-28.81 76.07-28.81L76.07-28.81Q75.49-28.81 75.05-28.96L75.05-28.96Q73.87-28.37 72.48-27.98 71.09-27.59 69.68-27.22 68.26-26.86 66.97-26.39 65.67-25.93 64.69-25.1L64.69-25.1Q64.6-24.41 64.55-23.75 64.5-23.1 64.5-22.46L64.5-22.46Q64.5-21.78 64.57-21.19 64.65-20.61 64.89-20.02L64.89-20.02Q65.13-19.92 65.45-19.87 65.77-19.82 66.01-19.82L66.01-19.82Q66.26-19.82 66.5-19.9 66.75-19.97 66.84-20.21L66.84-20.21Q67.58-20.31 68.31-20.29 69.04-20.26 69.77-20.26L69.77-20.26Q70.51-20.26 71.21-20.31 71.92-20.36 72.6-20.56L72.6-20.56Q73.39-20.75 74.14-20.8 74.9-20.85 75.63-20.9 76.36-20.95 77.15-21.07 77.93-21.19 78.76-21.58L78.76-21.58Q79.39-21.34 80.05-21.34 80.71-21.34 81.35-21.24L81.35-21.24Q81.69-21 81.91-20.7 82.13-20.41 82.13-20.02L82.13-20.02Q82.13-19.34 81.64-18.65 81.15-17.97 80.86-17.38L80.86-17.38 80.32-17.38Q79.15-17.38 78.05-17.07 76.95-16.75 75.85-16.33 74.75-15.92 73.65-15.6 72.56-15.28 71.38-15.28L71.38-15.28Q71.19-15.28 71.16-15.06 71.14-14.84 71.04-14.75L71.04-14.75Q70.8-14.79 70.31-14.79L70.31-14.79Q69.19-14.79 68.16-14.55 67.14-14.31 66.06-14.31L66.06-14.31Q65.77-14.31 65.48-14.33 65.18-14.36 64.89-14.4L64.89-14.4Q64.65-14.01 64.26-13.89 63.86-13.77 63.52-13.48L63.52-13.48Q63.38-13.04 63.35-12.4 63.33-11.77 63.3-11.11 63.28-10.45 63.18-9.86 63.08-9.28 62.79-8.94L62.79-8.94Q62.84-8.69 63.18-8.76 63.52-8.84 63.52-8.45L63.52-8.45Q63.52-8.01 63.43-7.52 63.33-7.03 63.33-6.54L63.33-6.54Q63.33-5.62 63.55-4.52 63.77-3.42 64.23-2.49 64.69-1.56 65.48-0.95 66.26-0.34 67.43-0.34L67.43-0.34Q68.21-0.34 68.89-0.63 69.58-0.93 70.02-1.61L70.02-1.61 70.26-1.66Q70.46-1.66 70.63-1.61 70.8-1.56 70.99-1.56L70.99-1.56Q71.29-1.56 71.75-1.93 72.21-2.29 72.78-2.78 73.34-3.27 73.92-3.74 74.51-4.2 75.05-4.39L75.05-4.39Q75.39-5.08 75.71-5.76 76.02-6.45 76.66-6.84L76.66-6.84 76.66-8.25Q77.15-8.79 77.71-9.23 78.27-9.67 78.56-10.35L78.56-10.35Q78.81-10.25 79.03-10.21 79.25-10.16 79.49-10.16L79.49-10.16Q79.73-10.16 80-10.21 80.27-10.25 80.52-10.35L80.52-10.35Q80.91-9.81 81.13-9.16 81.35-8.5 81.69-7.91L81.69-7.91Q81.25-7.03 80.66-5.81 80.08-4.59 79.39-3.37 78.71-2.15 77.95-1.05 77.19 0.05 76.46 0.63L76.46 0.63Q76.32 0.78 75.83 0.98L75.83 0.98Q75.29 1.37 74.85 1.73 74.41 2.1 74.02 2.59L74.02 2.59Q72.6 3.03 71.31 3.76 70.02 4.49 68.75 5.18L68.75 5.18Q68.16 5.03 67.48 5.03L67.48 5.03Q66.89 5.03 66.31 5.1 65.72 5.18 65.04 5.18L65.04 5.18Q64.84 4.93 64.48 4.86 64.11 4.79 64.21 4.35L64.21 4.35Q62.55 4.25 61.52 3.44 60.5 2.64 59.79 1.46 59.08 0.29 58.64-1.07 58.2-2.44 57.71-3.71L57.71-3.71 57.71-3.86Q57.71-4.1 57.91-4.15 58.1-4.2 58.1-4.44L58.1-4.44Q58.1-4.54 58.05-4.59L58.05-4.59Q57.91-5.13 57.81-5.52 57.71-5.91 57.71-6.45L57.71-6.45Q57.71-7.23 57.81-7.98 57.91-8.74 57.91-9.52L57.91-9.52Q57.91-10.3 57.71-10.89L57.71-10.89Q57.91-11.13 58.03-11.55 58.15-11.96 58.2-12.4 58.25-12.84 58.27-13.28 58.3-13.72 58.4-14.06L58.4-14.06Q58.2-14.6 58.05-15.01 57.91-15.43 57.91-16.02L57.91-16.02 57.91-16.36Q58.4-17.19 58.74-18.07 59.08-18.95 59.47-19.87L59.47-19.87 59.47-20.02Q59.47-21.44 59.37-22.85 59.27-24.27 59.27-25.68L59.27-25.68 59.27-26.61Q59.27-27.1 59.32-27.54L59.32-27.54Q59.71-27.73 59.91-28.08 60.1-28.42 60.5-28.61L60.5-28.61 62.11-28.61 62.4-29.1Q62.55-29.35 62.6-29.64L62.6-29.64Q63.13-29.79 63.64-30.05 64.16-30.32 64.6-30.62L64.6-30.62Q65.28-31.01 65.84-31.32 66.4-31.64 66.97-31.86 67.53-32.08 68.16-32.23 68.8-32.37 69.63-32.47L69.63-32.47Q70.02-32.47 70.14-32.62 70.26-32.76 70.51-32.96L70.51-32.96Q71.09-32.86 71.68-32.79 72.26-32.71 72.85-32.71L72.85-32.71Q74.02-32.71 75.05-33.15L75.05-33.15Q76.51-33.15 77.95-33.2 79.39-33.25 80.86-33.25L80.86-33.25Q82.13-33.25 83.4-33.15 84.67-33.06 85.89-32.81L85.89-32.81Q86.33-32.96 86.86-32.96L86.86-32.96Q87.45-32.96 88.06-32.84 88.67-32.71 89.26-32.81L89.26-32.81Q89.3-32.28 89.52-31.91 89.74-31.54 89.74-31.05Z" fill="#8bc53f" data-fill-palette-color="primary"></path><path d="M129.83-1.81L129.83-1.81Q129.83-1.32 129.78-1.07L129.78-1.07Q129.53-0.98 129.39-0.81 129.24-0.63 128.9-0.68L128.9-0.68Q128.8 0.05 128.41 0.54 128.02 1.03 127.61 1.44 127.19 1.86 126.8 2.32 126.41 2.78 126.31 3.52L126.31 3.52Q125.58 3.91 124.87 4.57 124.16 5.22 123.63 5.47L123.63 5.47Q123.24 5.66 122.8 5.79 122.36 5.91 121.92 6.1L121.92 6.1Q120.5 6.74 119.01 7.42 117.52 8.11 115.91 8.11L115.91 8.11 115.57 8.11Q115.37 8.3 115.08 8.37 114.79 8.45 114.5 8.5 114.2 8.54 113.91 8.64 113.62 8.74 113.47 8.94L113.47 8.94Q112.93 8.74 112.3 8.74L112.3 8.74 111.96 8.74Q111.13 8.94 110.39 9.03 109.66 9.13 108.83 9.13L108.83 9.13Q107.37 9.13 105.9 8.94 104.44 8.74 102.97 8.59L102.97 8.59Q102.04 7.86 101.46 6.76 100.87 5.66 100.87 4.44L100.87 4.44Q100.87 3.52 101.26 2.71 101.65 1.9 102.29 1.27L102.29 1.27 102.44 1.27Q102.87 1.27 103.34 1.07 103.8 0.88 104.24 0.88L104.24 0.88Q104.73 0.88 105.05 1.27 105.37 1.66 105.54 2.2 105.71 2.73 105.76 3.3 105.8 3.86 105.8 4.2L105.8 4.2Q106.34 4.44 106.95 4.49 107.56 4.54 108.2 4.54L108.2 4.54Q108.83 4.54 109.61 4.47 110.39 4.39 111.2 4.22 112.01 4.05 112.76 3.81 113.52 3.56 114.06 3.17L114.06 3.17Q116.74 2.93 118.79 1.95 120.84 0.98 123.14-0.34L123.14-0.34Q123.24-0.88 123.55-1.2 123.87-1.51 123.87-2.15L123.87-2.15Q123.87-2.25 123.85-2.37 123.82-2.49 123.82-2.59L123.82-2.59Q122.85-3.81 121.8-4.74 120.75-5.66 119.09-5.96L119.09-5.96Q118.89-6.4 118.45-6.62 118.01-6.84 117.52-7.03 117.03-7.23 116.6-7.45 116.16-7.67 115.96-8.2L115.96-8.2Q114.64-8.45 113.25-8.81 111.86-9.18 110.88-10.16L110.88-10.16Q110.1-10.21 109.39-10.47 108.69-10.74 108-11.01 107.32-11.28 106.59-11.5 105.85-11.72 105.07-11.72L105.07-11.72Q104.88-12.06 104.53-12.26 104.19-12.45 103.78-12.6 103.36-12.74 103-12.92 102.63-13.09 102.44-13.43L102.44-13.43Q102.24-13.38 102.14-13.23 102.04-13.09 101.8-13.09L101.8-13.09 101.61-13.09Q101.51-13.38 101.21-13.5 100.92-13.62 100.87-14.01L100.87-14.01Q99.99-14.06 99.29-14.36 98.58-14.65 97.97-15.01 97.36-15.38 96.72-15.72 96.09-16.06 95.31-16.26L95.31-16.26Q94.82-16.65 94.4-17.11 93.99-17.58 93.35-17.58L93.35-17.58Q93.21-17.58 92.82-17.48L92.82-17.48Q92.72-18.36 92.08-18.73 91.45-19.09 90.72-19.38L90.72-19.38Q90.23-20.65 89.4-21.63 88.57-22.61 87.59-23.44L87.59-23.44Q87.69-23.73 87.69-23.88L87.69-23.88Q87.69-24.37 87.45-24.73 87.2-25.1 86.91-25.34L86.91-25.34Q86.22-27.54 86.22-29.64L86.22-29.64Q86.22-32.57 87.52-35.08 88.81-37.6 91.6-38.87L91.6-38.87Q91.64-39.26 91.86-39.55 92.08-39.84 92.13-40.23L92.13-40.23Q92.57-40.23 92.82-40.43 93.06-40.63 93.28-40.84 93.5-41.06 93.74-41.26 93.99-41.46 94.38-41.5L94.38-41.5Q96.23-43.12 98.33-44.12 100.43-45.12 102.63-46.19L102.63-46.19Q103.07-46.39 103.36-46.92L103.36-46.92 103.66-46.92Q104.14-46.92 104.41-47.14 104.68-47.36 105.22-47.27L105.22-47.27Q105.41-47.56 105.73-47.66 106.05-47.75 106.37-47.83 106.68-47.9 106.98-48.05 107.27-48.19 107.37-48.49L107.37-48.49 107.71-48.49Q108.54-48.49 109.32-48.75 110.1-49.02 110.88-49.37L110.88-49.37 111.22-49.37Q112.2-49.37 113.06-49.73 113.91-50.1 114.89-50.24L114.89-50.24Q115.28-50.34 115.67-50.29 116.06-50.24 116.45-50.24L116.45-50.24Q116.69-50.24 117.03-50.29 117.38-50.34 117.52-50.59L117.52-50.59 117.62-50.59Q117.91-50.59 117.96-50.39 118.01-50.2 118.26-50.2L118.26-50.2Q118.6-50.2 118.94-50.29 119.28-50.39 119.62-50.39L119.62-50.39Q121.09-50.39 122.53-50.1 123.97-49.8 125.38-49.56L125.38-49.56Q125.48-48.97 125.9-48.73 126.31-48.49 126.8-48.29L126.8-48.29 126.8-48.1Q126.8-47.71 127-47.46L127-47.46Q126.8-46.78 126.31-46.44 125.82-46.09 125.24-45.85L125.24-45.85Q125.48-45.65 125.53-45.31 125.58-44.97 125.58-44.68L125.58-44.68 125.58-44.09 125.34-44.14Q124.55-44.14 124.55-43.41L124.55-43.41Q123.92-43.8 123.16-43.9 122.41-43.99 121.67-43.99L121.67-43.99Q120.7-43.99 119.62-43.92 118.55-43.85 117.52-43.95L117.52-43.95Q117.13-43.46 116.55-43.24 115.96-43.02 115.37-43.02L115.37-43.02Q114.74-43.02 114.15-43.29 113.57-43.55 113.32-44.09L113.32-44.09Q113.08-44.19 112.88-44.19L112.88-44.19 112.45-44.19Q111.66-44.19 110.91-44.02 110.15-43.85 109.37-43.63 108.59-43.41 107.83-43.19 107.07-42.97 106.29-42.92L106.29-42.92Q106-42.53 105.51-42.38 105.02-42.24 104.73-41.85L104.73-41.85Q103.7-41.65 102.87-41.19 102.04-40.72 101.26-40.19L101.26-40.19 99.75-39.16Q99.02-38.67 98.09-38.33L98.09-38.33Q97.41-37.6 96.82-37.16 96.23-36.72 95.31-36.38L95.31-36.38Q94.72-36.18 94.65-35.79 94.57-35.4 94.23-35.01L94.23-35.01Q93.94-34.67 93.52-34.5 93.11-34.33 92.82-33.94L92.82-33.94Q92.57-33.59 92.45-33.13 92.33-32.67 92.18-32.23 92.03-31.79 91.84-31.37 91.64-30.96 91.25-30.66L91.25-30.66Q91.25-30.47 91.23-30.27 91.2-30.08 91.2-29.93L91.2-29.93Q91.2-29.25 91.38-28.54 91.55-27.83 91.6-27.15L91.6-27.15Q92.57-25.44 93.89-24.05 95.21-22.66 96.72-21.48 98.24-20.31 99.87-19.29 101.51-18.26 103.12-17.29L103.12-17.29Q103.7-17.33 104.19-17.16 104.68-16.99 105.22-16.94L105.22-16.94Q105.8-16.5 106.59-16.26L106.59-16.26 108.15-15.77Q108.93-15.53 109.66-15.21 110.39-14.89 110.88-14.36L110.88-14.36Q111.13-14.31 111.32-14.23 111.52-14.16 111.76-14.16L111.76-14.16Q112.05-14.16 112.1-14.36L112.1-14.36Q114.3-13.53 116.4-12.52 118.5-11.52 120.84-10.99L120.84-10.99Q121.77-10.21 122.89-9.62 124.02-9.03 125.14-8.42 126.26-7.81 127.29-7.1 128.31-6.4 129.1-5.42L129.1-5.42Q129.19-4.49 129.51-3.64 129.83-2.78 129.83-1.81ZM170.6-27.88L170.6-27.15Q170.6-26.46 170.55-25.78 170.5-25.1 170.4-24.41L170.4-24.41Q170.06-23.93 169.74-23.56 169.43-23.19 169.33-22.66L169.33-22.66Q168.79-22.27 168.13-21.58 167.47-20.9 167.57-20.21L167.57-20.21 166.89-20.21Q166.3-19.34 165.52-18.7 164.74-18.07 163.86-17.48L163.86-17.48 162.15-16.36Q161.32-15.82 160.59-15.09L160.59-15.09Q160.2-15.04 159.95-14.94 159.71-14.84 159.32-14.89L159.32-14.89Q157.8-13.92 156.17-13.18 154.53-12.45 152.9-11.74 151.26-11.04 149.65-10.25 148.04-9.47 146.57-8.45L146.57-8.45Q146.43-8.5 146.18-8.5L146.18-8.5Q145.74-8.5 145.3-8.37 144.86-8.25 144.43-8.25L144.43-8.25Q144.23-8.25 143.91-8.3 143.59-8.35 143.45-8.45L143.45-8.45Q143.2-8.59 143.01-8.89 142.81-9.18 142.72-9.55 142.62-9.91 142.57-10.25 142.52-10.6 142.52-10.84L142.52-10.84Q142.52-11.13 142.57-11.47 142.62-11.82 142.72-12.11L142.72-12.11Q144.13-12.21 145.57-12.84 147.01-13.48 148.33-14.06L148.33-14.06Q148.67-14.21 148.89-14.43 149.11-14.65 149.36-14.82 149.6-14.99 149.89-15.14 150.19-15.28 150.63-15.28L150.63-15.28 150.77-15.28Q153.85-16.7 156.8-18.36 159.76-20.02 162.69-21.73L162.69-21.73Q162.83-22.17 163.15-22.61 163.47-23.05 163.76-23.46 164.05-23.88 164.3-24.32 164.54-24.76 164.54-25.2L164.54-25.2Q164.54-26.07 163.71-26.66L163.71-26.66 163.52-26.66Q162.93-26.66 162.49-26.83 162.05-27 161.66-27.17 161.27-27.34 160.78-27.47 160.29-27.59 159.66-27.54L159.66-27.54Q159.42-27.73 158.88-27.88 158.34-28.03 158-28.03L158-28.03Q156.24-28.03 154.53-27.81 152.82-27.59 151.11-27.54L151.11-27.54Q150.68-27.29 150.28-27.1 149.89-26.9 149.36-26.9L149.36-26.9Q149.11-26.9 148.92-26.93 148.72-26.95 148.48-27L148.48-27Q147.55-26.61 146.38-26.34 145.21-26.07 144.06-25.71 142.91-25.34 141.93-24.8 140.96-24.27 140.42-23.34L140.42-23.34Q140.42-23.1 140.52-22.92 140.62-22.75 140.62-22.51L140.62-22.51 140.62-22.31Q140.32-22.02 140.23-21.66 140.13-21.29 140.08-20.92 140.03-20.56 139.96-20.19 139.88-19.82 139.59-19.48L139.59-19.48Q139.79-18.75 139.79-17.87L139.79-17.87Q139.79-16.89 139.66-15.92 139.54-14.94 139.54-13.96L139.54-13.96Q139.54-13.04 139.74-12.3L139.74-12.3Q139.44-12.01 139.49-11.43 139.54-10.84 139.25-10.55L139.25-10.55Q139.25-10.16 139.47-10.01 139.69-9.86 139.74-9.52L139.74-9.52Q139.54-8.69 139.54-7.71L139.54-7.71Q139.54-6.3 139.86-4.83 140.18-3.37 140.62-1.95L140.62-1.95Q141.4-2.2 142.3-2.37 143.2-2.54 144.03-2.54L144.03-2.54Q144.18-2.54 144.33-2.51 144.47-2.49 144.62-2.49L144.62-2.49Q144.72-1.95 145.01-1.51 145.3-1.07 145.55-0.54L145.55-0.54Q145.3-0.2 145.13 0.02 144.96 0.24 144.96 0.63L144.96 0.63Q144.28 0.68 143.84 1 143.4 1.32 142.86 1.71L142.86 1.71 142.67 1.71Q141.84 1.71 141.3 2.03 140.76 2.34 140.08 2.73L140.08 2.73Q139.49 2.49 138.91 2.49L138.91 2.49Q138.27 2.49 137.64 2.73L137.64 2.73Q136.86 2.39 136.37 1.68 135.88 0.98 135.54 0.12 135.2-0.73 134.93-1.61 134.66-2.49 134.32-3.22L134.32-3.22 134.32-4Q134.32-5.13 134.15-6.18 133.98-7.23 133.98-8.35L133.98-8.35Q133.98-8.79 134.05-9.28 134.12-9.77 134.32-10.21L134.32-10.21Q134.22-10.64 134.22-11.04L134.22-11.04 134.22-11.96Q134.22-13.43 134.34-14.89 134.46-16.36 134.46-17.82L134.46-17.82Q134.46-18.9 134.32-20.02L134.32-20.02Q134.07-19.92 133.88-19.82 133.68-19.73 133.44-19.73L133.44-19.73Q133.19-19.73 132.97-19.78 132.76-19.82 132.56-19.87L132.56-19.87Q132.07-20.31 131.88-20.95 131.68-21.58 131.34-22.12L131.34-22.12Q131.34-23.05 131.61-23.66 131.88-24.27 132.27-24.78 132.66-25.29 133.07-25.78 133.49-26.27 133.78-27L133.78-27 133.98-27Q134.76-27 135.54-27.51 136.32-28.03 137.3-28.03L137.3-28.03Q137.64-28.47 138.22-28.78 138.81-29.1 139.47-29.3 140.13-29.49 140.79-29.57 141.45-29.64 142.03-29.64L142.03-29.64Q142.23-29.98 142.62-30.1 143.01-30.22 143.42-30.35 143.84-30.47 144.21-30.59 144.57-30.71 144.82-31.05L144.82-31.05Q145.21-30.96 145.55-30.96L145.55-30.96Q146.18-30.96 146.77-31.13 147.35-31.3 147.94-31.52 148.53-31.74 149.14-31.93 149.75-32.13 150.43-32.13L150.43-32.13Q150.68-32.13 150.92-32.1 151.16-32.08 151.41-32.08L151.41-32.08Q151.8-32.08 151.87-32.37 151.94-32.67 152.19-32.81L152.19-32.81Q152.34-32.76 152.73-32.76L152.73-32.76Q153.7-32.76 154.63-32.93 155.56-33.11 156.53-33.11L156.53-33.11Q156.97-33.11 157.41-33.06 157.85-33.01 158.29-32.81L158.29-32.81Q158.39-32.96 158.49-33.06 158.59-33.15 158.63-33.3L158.63-33.3Q161.03-33.15 163.15-32.32 165.27-31.49 167.57-30.86L167.57-30.86Q167.86-30.42 168.25-30.08L168.25-30.08 169.08-29.39Q169.52-29.05 169.91-28.71 170.3-28.37 170.6-27.88L170.6-27.88ZM208.53-3.56L208.53-3.56Q208.39-2.88 207.92-2.47 207.46-2.05 206.82-1.81 206.19-1.56 205.53-1.49 204.87-1.42 204.33-1.42L204.33-1.42Q204.09-1.42 203.87-1.44 203.65-1.46 203.41-1.46L203.41-1.46Q203.16-1.46 203.16-1.22 203.16-0.98 202.92-0.88L202.92-0.88Q202.67-0.98 202.43-1.03 202.19-1.07 201.94-1.07L201.94-1.07Q201.6-1.07 201.28-1.03 200.97-0.98 200.67-0.98L200.67-0.98Q200.28-0.98 200.11-1.07 199.94-1.17 199.82-1.29 199.7-1.42 199.57-1.56 199.45-1.71 199.21-1.81L199.21-1.81Q198.87-1.95 198.65-1.86 198.43-1.76 197.99-2.15L197.99-2.15Q197.4-2.64 196.99-3.34 196.57-4.05 196.18-4.83 195.79-5.62 195.35-6.4 194.91-7.18 194.32-7.76L194.32-7.76 193.93-7.76Q193.06-7.76 192.71-7.03L192.71-7.03Q192.47-7.18 192.23-7.4 191.98-7.62 191.69-7.76L191.69-7.76Q190.57-7.42 189.34-7.18 188.12-6.93 186.9-6.93L186.9-6.93 186.22-6.93Q185.93-6.93 185.58-7.03L185.58-7.03Q185.1-6.84 184.71-6.57 184.32-6.3 183.83-6.3L183.83-6.3Q183.53-6.3 183.14-6.49L183.14-6.49Q182.85-6.49 182.87-6.25 182.9-6.01 182.56-6.01L182.56-6.01 182.12-6.01Q181.43-6.01 180.78-5.96 180.12-5.91 179.43-5.91L179.43-5.91Q178.5-5.91 177.53-6.15L177.53-6.15Q177.28-6.01 176.99-6.01L176.99-6.01Q176.8-5.91 176.7-5.69 176.6-5.47 176.5-5.3 176.4-5.13 176.23-5 176.06-4.88 175.77-4.93L175.77-4.93Q175.67-4.35 175.28-4 174.89-3.66 174.89-2.98L174.89-2.98Q174.35-2.69 174.01-2.25 173.67-1.81 173.33-1.32 172.99-0.83 172.62-0.39 172.25 0.05 171.72 0.29L171.72 0.29Q171.47 0.59 171.57 1.22L171.57 1.22Q171.03 1.66 170.25 2 169.47 2.34 168.79 2.34L168.79 2.34Q167.37 2.34 166.83 0.83L166.83 0.83Q166.83 0.34 166.91-0.22 166.98-0.78 167.13-1.29 167.27-1.81 167.57-2.22 167.86-2.64 168.4-2.83L168.4-2.83Q168.4-3.27 168.1-3.44 167.81-3.61 167.86-4.05L167.86-4.05Q169.18-4.69 170.15-5.71 171.13-6.74 171.94-7.89 172.74-9.03 173.57-10.21 174.4-11.38 175.43-12.3L175.43-12.3 175.43-13.33Q176.89-14.89 177.33-16.85L177.33-16.85Q177.87-16.94 178.04-17.33 178.21-17.72 178.21-18.26L178.21-18.26Q178.46-18.26 178.53-18.48 178.6-18.7 178.94-18.6L178.94-18.6Q179.38-19.78 179.92-20.75 180.46-21.73 180.99-22.73 181.53-23.73 181.95-24.8 182.36-25.88 182.56-27.2L182.56-27.2Q183.24-27.25 183.31-27.86 183.39-28.47 183.49-28.96L183.49-28.96Q184.22-29.64 184.58-30.57 184.95-31.49 185.24-32.5 185.54-33.5 185.9-34.5 186.27-35.5 186.95-36.28L186.95-36.28 186.95-36.43Q186.95-36.67 186.76-36.74 186.56-36.82 186.56-37.06L186.56-37.06Q186.61-37.11 186.61-37.16L186.61-37.16Q187.2-37.4 187.49-37.96 187.78-38.53 188.37-38.77L188.37-38.77Q189.39-37.94 190.17-37.77 190.96-37.6 192.23-37.5L192.23-37.5Q192.86-36.82 192.93-35.86 193.01-34.91 193.25-33.98L193.25-33.98Q193.64-32.42 194.11-30.93 194.57-29.44 194.81-27.88L194.81-27.88Q194.96-26.95 195.35-26.12 195.74-25.29 195.89-24.41L195.89-24.41Q195.99-23.73 195.89-22.88 195.79-22.02 196.08-21.39L196.08-21.39 196.42-20.61Q196.67-20.07 196.84-19.48 197.01-18.9 197.16-18.31L197.16-18.31Q197.55-16.85 197.86-15.16 198.18-13.48 198.87-12.11L198.87-12.11Q199.11-11.62 199.62-11.43 200.14-11.23 200.77-11.16 201.4-11.08 202.02-11.11 202.63-11.13 203.07-11.13L203.07-11.13 203.55-11.13Q203.85-11.13 204.14-11.04L204.14-11.04Q204.33-10.64 204.33-10.35L204.33-10.35Q204.33-9.77 203.94-9.42 203.55-9.08 203.55-8.64L203.55-8.64Q203.55-8.4 203.75-8.11L203.75-8.11Q203.55-8.15 203.16-8.15L203.16-8.15Q202.04-8.15 200.97-7.76L200.97-7.76Q201.36-6.93 202.02-6.37 202.67-5.81 203.41-5.32L203.41-5.32Q203.9-5.71 204.43-5.71L204.43-5.71Q205.02-5.71 205.53-5.44 206.04-5.18 206.63-5.18L206.63-5.18Q207.07-5.18 207.26-5.32L207.26-5.32Q207.65-4.88 207.9-4.42 208.14-3.96 208.53-3.56ZM193.25-11.38L193.25-11.38Q193.15-12.21 192.93-12.57 192.71-12.94 192.57-13.48L192.57-13.48Q192.37-14.16 192.3-14.94 192.23-15.72 192.08-16.46L192.08-16.46Q191.74-18.12 191.32-19.78 190.91-21.44 190.27-23L190.27-23Q190.47-23.29 190.47-23.54L190.47-23.54 190.47-23.68Q190.03-24.17 189.83-24.88 189.64-25.59 189.47-26.29 189.3-27 189.03-27.61 188.76-28.22 188.17-28.61L188.17-28.61Q188.03-28.32 188.03-27.93L188.03-27.93Q188.03-27.59 188.1-27.29 188.17-27 188.17-26.66L188.17-26.66Q187.68-26.42 187.46-25.9 187.24-25.39 186.76-25.1L186.76-25.1Q186.37-23.54 185.63-22.14 184.9-20.75 184.1-19.38 183.29-18.02 182.56-16.63 181.82-15.23 181.39-13.72L181.39-13.72Q180.75-13.28 180.53-12.6 180.31-11.91 180.31-11.23L180.31-11.23Q180.75-10.99 181.31-10.96 181.87-10.94 182.41-10.94 182.95-10.94 183.44-10.84 183.92-10.74 184.32-10.35L184.32-10.35Q184.95-10.55 185.71-10.62 186.46-10.69 186.95-11.04L186.95-11.04Q187.93-10.69 189.05-10.69L189.05-10.69Q189.64-10.69 190.2-10.79 190.76-10.89 191.3-11.04L191.3-11.04Q191.74-10.94 191.98-10.72 192.23-10.5 192.71-10.55L192.71-10.55Q192.96-10.74 193.01-10.96 193.06-11.18 193.25-11.38ZM244.52-8.79L244.76-8.79Q244.76-8.3 244.49-7.98 244.22-7.67 243.86-7.42 243.49-7.18 243.13-6.98 242.76-6.79 242.47-6.49L242.47-6.49Q242.27-6.3 242.2-6.03 242.13-5.76 241.93-5.66L241.93-5.66Q241.64-5.42 241.3-5.37 240.95-5.32 240.59-5.25 240.22-5.18 239.88-5.05 239.54-4.93 239.29-4.59L239.29-4.59Q237-4.35 234.78-3.96 232.55-3.56 230.21-3.56L230.21-3.56Q229.77-3.56 229.26-3.49 228.75-3.42 228.31-3.37L228.31-3.37Q227.28-3.27 226.28-3.22 225.28-3.17 224.25-3.17L224.25-3.17Q222.84-3.17 221.42-3.3 220.01-3.42 218.64-3.71L218.64-3.71Q218.3-3.96 217.86-4.1 217.42-4.25 216.95-4.39 216.49-4.54 216.1-4.74 215.71-4.93 215.51-5.32L215.51-5.32Q214.78-5.37 214.22-5.62 213.66-5.86 213.19-6.18 212.73-6.49 212.24-6.84 211.75-7.18 211.12-7.42L211.12-7.42Q210.63-8.11 210.12-8.76 209.61-9.42 208.87-9.86L208.87-9.86Q208.73-10.79 208.41-11.72 208.09-12.65 207.77-13.55 207.46-14.45 207.24-15.38 207.02-16.31 207.02-17.29L207.02-17.29Q207.02-17.97 207.21-18.95 207.41-19.92 207.73-20.92 208.04-21.92 208.48-22.8 208.92-23.68 209.36-24.22L209.36-24.22Q209.51-24.37 209.7-24.46 209.9-24.56 210.05-24.76L210.05-24.76Q210.48-25.24 210.97-25.56 211.46-25.88 212-26.32L212-26.32Q212.19-26.51 212.32-26.76 212.44-27 212.68-27.2L212.68-27.2Q212.83-27.29 213.1-27.25 213.37-27.2 213.56-27.34L213.56-27.34Q213.76-27.49 213.76-27.69 213.76-27.88 213.9-28.03L213.9-28.03Q213.95-28.08 214.2-28.05 214.44-28.03 214.49-28.03L214.49-28.03Q214.83-28.03 215.27-28.49 215.71-28.96 216-29.1L216-29.1Q216.34-29.3 216.69-29.37 217.03-29.44 217.42-29.64L217.42-29.64Q217.96-29.93 218.47-30.1 218.98-30.27 219.52-30.52L219.52-30.52Q219.81-30.62 220.05-30.86 220.3-31.1 220.54-31.2L220.54-31.2Q220.98-31.35 221.5-31.42 222.01-31.49 222.47-31.57 222.94-31.64 223.4-31.76 223.86-31.88 224.25-32.23L224.25-32.23 224.64-32.23Q225.52-32.23 226.35-32.47 227.18-32.71 228.06-32.71L228.06-32.71Q228.31-32.71 228.8-32.62L228.8-32.62Q229.19-32.86 229.67-32.86L229.67-32.86Q230.5-32.86 231.33-32.45 232.16-32.03 233.04-32.03L233.04-32.03 233.34-32.03Q233.53-32.03 233.73-32.08L233.73-32.08Q234.26-31.54 235.02-31.49 235.78-31.45 236.31-31.05L236.31-31.05Q236.66-30.76 236.88-30.37 237.1-29.98 237.24-29.54L237.24-29.54 237.54-28.66Q237.68-28.22 237.93-27.88L237.93-27.88Q237.68-26.12 236.49-25.07 235.29-24.02 233.48-24.02L233.48-24.02Q232.8-24.02 232.34-24.19 231.87-24.37 231.5-24.56 231.14-24.76 230.75-24.95 230.36-25.15 229.87-25.24L229.87-25.24Q230.41-26.22 230.55-27.34L230.55-27.34Q230.02-27.59 229.48-27.69 228.94-27.78 228.45-28.03L228.45-28.03Q227.13-27.69 225.89-27.56 224.64-27.44 223.57-26.51L223.57-26.51Q223.33-26.56 223.06-26.61 222.79-26.66 222.55-26.66L222.55-26.66Q222.25-26.66 221.37-26.25 220.49-25.83 219.49-25.29 218.49-24.76 217.59-24.22 216.69-23.68 216.34-23.49L216.34-23.49Q215.95-23.24 215.66-22.9 215.37-22.56 215.07-22.19 214.78-21.83 214.49-21.51 214.2-21.19 213.76-21.04L213.76-21.04Q213.66-20.51 213.41-20.12 213.17-19.73 212.88-19.29L212.88-19.29Q212.83-18.41 212.71-17.53 212.58-16.65 212.58-15.77L212.58-15.77 212.58-15.14Q212.58-14.84 212.68-14.6L212.68-14.6Q213.17-13.96 213.49-13.18 213.8-12.4 214.59-12.11L214.59-12.11Q214.63-11.91 214.56-11.87 214.49-11.82 214.44-11.62L214.44-11.62Q214.73-11.08 215.2-10.77 215.66-10.45 216.15-10.13 216.64-9.81 217.08-9.47 217.52-9.13 217.76-8.59L217.76-8.59Q218.49-8.59 219.15-8.35 219.81-8.11 220.42-7.81 221.03-7.52 221.59-7.28 222.15-7.03 222.74-7.03L222.74-7.03Q223.28-7.03 223.72-7.18L223.72-7.18Q224.99-6.79 226.28-6.62 227.57-6.45 228.89-6.45L228.89-6.45Q230.5-6.45 232.12-6.64 233.73-6.84 235.34-6.98L235.34-6.98Q235.92-7.08 236.46-7.08 237-7.08 237.54-7.18L237.54-7.18Q238.22-7.28 238.83-7.81 239.44-8.35 240.03-8.59L240.03-8.59Q240.56-8.25 241.3-8.25L241.3-8.25Q242.13-8.25 242.91-8.52 243.69-8.79 244.52-8.79L244.52-8.79ZM275.28-31.05L275.28-31.05 275.28-30.86Q274.94-30.76 274.94-30.37L274.94-30.37Q274.4-30.13 273.81-30 273.23-29.88 272.69-29.64L272.69-29.64Q272.15-29.69 271.59-29.71 271.03-29.74 270.49-29.74L270.49-29.74Q269.03-29.74 267.56-29.64 266.1-29.54 264.63-29.64L264.63-29.64Q263.95-29.25 263.14-29.03 262.34-28.81 261.61-28.81L261.61-28.81Q261.02-28.81 260.58-28.96L260.58-28.96Q259.41-28.37 258.02-27.98 256.62-27.59 255.21-27.22 253.79-26.86 252.5-26.39 251.2-25.93 250.23-25.1L250.23-25.1Q250.13-24.41 250.08-23.75 250.03-23.1 250.03-22.46L250.03-22.46Q250.03-21.78 250.11-21.19 250.18-20.61 250.42-20.02L250.42-20.02Q250.67-19.92 250.98-19.87 251.3-19.82 251.55-19.82L251.55-19.82Q251.79-19.82 252.03-19.9 252.28-19.97 252.38-20.21L252.38-20.21Q253.11-20.31 253.84-20.29 254.57-20.26 255.31-20.26L255.31-20.26Q256.04-20.26 256.75-20.31 257.45-20.36 258.14-20.56L258.14-20.56Q258.92-20.75 259.68-20.8 260.43-20.85 261.17-20.9 261.9-20.95 262.68-21.07 263.46-21.19 264.29-21.58L264.29-21.58Q264.93-21.34 265.58-21.34 266.24-21.34 266.88-21.24L266.88-21.24Q267.22-21 267.44-20.7 267.66-20.41 267.66-20.02L267.66-20.02Q267.66-19.34 267.17-18.65 266.68-17.97 266.39-17.38L266.39-17.38 265.85-17.38Q264.68-17.38 263.58-17.07 262.48-16.75 261.39-16.33 260.29-15.92 259.19-15.6 258.09-15.28 256.92-15.28L256.92-15.28Q256.72-15.28 256.7-15.06 256.67-14.84 256.58-14.75L256.58-14.75Q256.33-14.79 255.84-14.79L255.84-14.79Q254.72-14.79 253.69-14.55 252.67-14.31 251.6-14.31L251.6-14.31Q251.3-14.31 251.01-14.33 250.72-14.36 250.42-14.4L250.42-14.4Q250.18-14.01 249.79-13.89 249.4-13.77 249.06-13.48L249.06-13.48Q248.91-13.04 248.89-12.4 248.86-11.77 248.84-11.11 248.81-10.45 248.71-9.86 248.62-9.28 248.32-8.94L248.32-8.94Q248.37-8.69 248.71-8.76 249.06-8.84 249.06-8.45L249.06-8.45Q249.06-8.01 248.96-7.52 248.86-7.03 248.86-6.54L248.86-6.54Q248.86-5.62 249.08-4.52 249.3-3.42 249.76-2.49 250.23-1.56 251.01-0.95 251.79-0.34 252.96-0.34L252.96-0.34Q253.74-0.34 254.43-0.63 255.11-0.93 255.55-1.61L255.55-1.61 255.79-1.66Q255.99-1.66 256.16-1.61 256.33-1.56 256.53-1.56L256.53-1.56Q256.82-1.56 257.28-1.93 257.75-2.29 258.31-2.78 258.87-3.27 259.46-3.74 260.04-4.2 260.58-4.39L260.58-4.39Q260.92-5.08 261.24-5.76 261.56-6.45 262.19-6.84L262.19-6.84 262.19-8.25Q262.68-8.79 263.24-9.23 263.8-9.67 264.1-10.35L264.1-10.35Q264.34-10.25 264.56-10.21 264.78-10.16 265.02-10.16L265.02-10.16Q265.27-10.16 265.54-10.21 265.8-10.25 266.05-10.35L266.05-10.35Q266.44-9.81 266.66-9.16 266.88-8.5 267.22-7.91L267.22-7.91Q266.78-7.03 266.19-5.81 265.61-4.59 264.93-3.37 264.24-2.15 263.48-1.05 262.73 0.05 262 0.63L262 0.63Q261.85 0.78 261.36 0.98L261.36 0.98Q260.82 1.37 260.38 1.73 259.94 2.1 259.55 2.59L259.55 2.59Q258.14 3.03 256.84 3.76 255.55 4.49 254.28 5.18L254.28 5.18Q253.69 5.03 253.01 5.03L253.01 5.03Q252.43 5.03 251.84 5.1 251.25 5.18 250.57 5.18L250.57 5.18Q250.37 4.93 250.01 4.86 249.64 4.79 249.74 4.35L249.74 4.35Q248.08 4.25 247.05 3.44 246.03 2.64 245.32 1.46 244.61 0.29 244.17-1.07 243.73-2.44 243.25-3.71L243.25-3.71 243.25-3.86Q243.25-4.1 243.44-4.15 243.64-4.2 243.64-4.44L243.64-4.44Q243.64-4.54 243.59-4.59L243.59-4.59Q243.44-5.13 243.34-5.52 243.25-5.91 243.25-6.45L243.25-6.45Q243.25-7.23 243.34-7.98 243.44-8.74 243.44-9.52L243.44-9.52Q243.44-10.3 243.25-10.89L243.25-10.89Q243.44-11.13 243.56-11.55 243.69-11.96 243.73-12.4 243.78-12.84 243.81-13.28 243.83-13.72 243.93-14.06L243.93-14.06Q243.73-14.6 243.59-15.01 243.44-15.43 243.44-16.02L243.44-16.02 243.44-16.36Q243.93-17.19 244.27-18.07 244.61-18.95 245-19.87L245-19.87 245-20.02Q245-21.44 244.91-22.85 244.81-24.27 244.81-25.68L244.81-25.68 244.81-26.61Q244.81-27.1 244.86-27.54L244.86-27.54Q245.25-27.73 245.44-28.08 245.64-28.42 246.03-28.61L246.03-28.61 247.64-28.61 247.93-29.1Q248.08-29.35 248.13-29.64L248.13-29.64Q248.67-29.79 249.18-30.05 249.69-30.32 250.13-30.62L250.13-30.62Q250.81-31.01 251.38-31.32 251.94-31.64 252.5-31.86 253.06-32.08 253.69-32.23 254.33-32.37 255.16-32.47L255.16-32.47Q255.55-32.47 255.67-32.62 255.79-32.76 256.04-32.96L256.04-32.96Q256.62-32.86 257.21-32.79 257.8-32.71 258.38-32.71L258.38-32.71Q259.55-32.71 260.58-33.15L260.58-33.15Q262.04-33.15 263.48-33.2 264.93-33.25 266.39-33.25L266.39-33.25Q267.66-33.25 268.93-33.15 270.2-33.06 271.42-32.81L271.42-32.81Q271.86-32.96 272.4-32.96L272.4-32.96Q272.98-32.96 273.59-32.84 274.2-32.71 274.79-32.81L274.79-32.81Q274.84-32.28 275.06-31.91 275.28-31.54 275.28-31.05Z" fill="#5d9943" data-fill-palette-color="accent"></path></g></svg></g></svg></g></svg></g></svg></g></svg></g><defs></defs></svg><rect width="395.52" height="93.84118356164383" fill="none" stroke="none" visibility="hidden"></rect></g></svg></g></svg>