<svg xmlns="http://www.w3.org/2000/svg" xmlns:xlink="http://www.w3.org/1999/xlink" version="1.1" width="1000" height="1000" viewBox="0 0 1000 1000" xml:space="preserve">
<desc>Created with Fabric.js 3.5.0</desc>

<defs>
</defs><g transform="matrix(21.203 0 0 20.6951 561.5999 552.1636)" id="125215">

<g style="" vector-effect="non-scaling-stroke">
		<g transform="matrix(1 0 0 1 -0.0062 0.1854)">
<path style="stroke: none; stroke-width: 1; stroke-dasharray: none; stroke-linecap: butt; stroke-dashoffset: 0; stroke-linejoin: miter; stroke-miterlimit: 4; is-custom-font: none; font-file-url: none; fill: #94B044; fill-rule: nonzero; opacity: 1;" transform=" translate(-19.4937, -17.6854)" d="M 5.82098 26.1347 C 5.39067 25.7317 5.02543 25.3112 4.67839 24.8513 C 4.58058 24.7302 4.48958 24.605 4.40475 24.4761 C 4.1901 24.1723 3.97773 23.8506 3.75593 23.5056 C 3.24112 22.7047 3.09477 21.4359 3.09477 20.4936 C 3.09477 19.4223 2.79572 17.8405 3.26006 16.8572 C 4.02437 15.2387 5.60014 13.1063 7.35559 12.4311 C 8.09567 12.1465 8.76988 11.763 9.55027 11.5679 C 10.6947 11.2818 11.8111 11.1552 12.9755 10.9435 C 15.0876 10.5595 17.3864 11.0721 19.4952 11.0721 C 22.1569 11.0721 24.9246 11.2457 27.3924 10.0803 C 28.342 9.6319 29.5295 9.40993 30.3677 8.758 C 31.2507 8.07119 32.0329 7.40263 32.6817 6.48067 C 33.2695 5.64541 33.92 4.64068 34.1693 3.64319 C 34.5039 2.30487 34.3828 3.37678 34.5917 3.97377 C 35.486 6.52876 35.9875 9.18336 35.9875 11.8985 C 35.9875 14.701 35.3399 17.087 34.5917 19.759 C 33.813 22.5401 32.597 25.6102 30.3677 27.5919 C 28.3107 29.4203 25.3091 31.0072 22.6817 31.8068 C 20.598 32.441 17.0985 32.7293 15.0783 31.6415 C 14.4265 31.2905 13.6064 31.2675 12.9755 30.9069 C 12.1649 30.4437 11.2188 29.8891 10.3584 29.5019 C 9.16779 28.9662 8.29526 28.3652 7.26376 27.6011 C 6.69661 27.181 6.25733 26.6567 5.82098 26.1347 Z" stroke-linecap="round"/>
</g>

<g transform="matrix(1 0 0 1 -0.0062 0.1854)">
<path style="stroke: #94B044; stroke-width: 5; stroke-dasharray: none; stroke-linecap: round; stroke-dashoffset: 0; stroke-linejoin: miter; stroke-miterlimit: 4; is-custom-font: none; font-file-url: none; fill: none; fill-rule: nonzero; opacity: 1;" transform=" translate(-19.4937, -17.6854)" d="M 9.21051 28.097 C 8.19504 28.097 7.60695 27.5176 6.80462 26.9399 C 5.41198 25.9372 4.66284 24.9163 3.75593 23.5056 C 3.24112 22.7047 3.09477 21.4359 3.09477 20.4936 C 3.09477 19.4223 2.79572 17.8405 3.26006 16.8572 C 4.02437 15.2387 5.60014 13.1063 7.35559 12.4311 C 8.09567 12.1465 8.76988 11.763 9.55027 11.5679 C 10.6947 11.2818 11.8111 11.1552 12.9755 10.9435 C 15.0876 10.5595 17.3864 11.0721 19.4952 11.0721 C 22.1569 11.0721 24.9246 11.2457 27.3924 10.0803 C 28.342 9.6319 29.5295 9.40993 30.3677 8.758 C 31.2507 8.07119 32.0329 7.40263 32.6817 6.48067 C 33.2695 5.64541 33.92 4.64068 34.1693 3.64319 C 34.5039 2.30487 34.3828 3.37678 34.5917 3.97377 C 35.486 6.52876 35.9875 9.18336 35.9875 11.8985 C 35.9875 14.701 35.3399 17.087 34.5917 19.759 C 33.813 22.5401 32.597 25.6102 30.3677 27.5919 C 28.3107 29.4203 25.3091 31.0072 22.6817 31.8068 C 20.598 32.441 17.0985 32.7293 15.0783 31.6415 C 14.4265 31.2905 13.6064 31.2675 12.9755 30.9069 C 12.1649 30.4437 11.2188 29.8891 10.3584 29.5019 C 9.16779 28.9662 8.29526 28.3652 7.26376 27.6011 C 6.34995 26.9242 5.76809 25.9769 4.99561 25.2044 C 3.67637 23.8851 3.38717 21.9174 3.09477 20.163" stroke-linecap="round"/>
</g>
</g>
</g>
<g transform="matrix(22.1729 0 0 22.1729 479.4879 500)" id="55083">
<path style="stroke: none; stroke-width: 0; stroke-dasharray: none; stroke-linecap: butt; stroke-dashoffset: 0; stroke-linejoin: miter; stroke-miterlimit: 4; is-custom-font: none; font-file-url: none; fill: rgb(51,51,51); fill-rule: evenodd; opacity: 1;" vector-effect="non-scaling-stroke" transform=" translate(-20.5, -21)" d="M 35.2754 1.11137 C 37.2218 -0.258086 40.0946 0.752194 40.5095 3.35222 C 41.222 7.81758 41.2867 13.8089 39.8319 19.7091 C 38.3741 25.6216 35.3466 31.5977 29.7511 35.7358 C 23.1815 40.5942 16.5087 39.4639 12.642 37.4793 C 11.5186 36.9027 11.0667 35.5074 11.6327 34.3629 C 12.1987 33.2185 13.5683 32.7581 14.6917 33.3347 C 17.3966 34.723 22.1841 35.5971 27.0749 31.9802 C 31.5673 28.6579 34.1342 23.7676 35.4136 18.5785 C 36.4983 14.1796 36.6261 9.67762 36.2598 6.01281 C 33.6209 7.6896 30.3118 9.1633 24.9924 9.0127 C 24.2878 8.99275 23.6056 8.96452 22.9403 8.93699 C 21.0454 8.85858 19.2877 8.78584 17.5392 8.92633 C 15.2597 9.10949 13.2858 9.64869 11.5795 10.8979 C 9.3076 12.5612 8.11058 14.1946 7.49375 15.6906 C 6.89085 17.1529 6.77079 18.6572 6.94047 20.2212 C 7.15906 21.1407 7.81557 22.8804 8.941 24.2873 C 11.7495 21.9283 15.326 19.8319 19.8208 18.401 C 21.0215 18.0187 22.299 18.7004 22.6742 19.9236 C 23.0495 21.1468 22.3803 22.4483 21.1796 22.8306 C 9.14101 26.6631 5.08694 35.8399 4.52936 39.5321 C 4.33807 40.7987 3.17508 41.6676 1.93173 41.4727 C 0.688387 41.2778 -0.164476 40.093 0.0268071 38.8264 C 0.449329 36.0286 2.10422 31.6616 5.66216 27.525 C 3.74763 25.2771 2.77595 22.5413 2.46774 21.1144 L 2.44388 21.004 L 2.43068 20.8917 C 2.17399 18.708 2.29511 16.3153 3.2937 13.8934 C 4.29361 11.4683 6.09834 9.19576 8.92099 7.12927 C 11.5351 5.21545 14.4133 4.52222 17.181 4.29983 C 19.2266 4.13546 21.3756 4.22511 23.3399 4.30704 C 23.9539 4.33266 24.5499 4.35752 25.119 4.37363 C 30.1908 4.51721 32.7226 2.90744 35.2754 1.11137 Z" stroke-linecap="round"/>
</g>


</svg>