<svg width="20" height="20" viewBox="0 0 20 20" fill="none" xmlns="http://www.w3.org/2000/svg">
<path opacity="0.4" d="M16 18.5H15V18.25C15 17.15 14.1 16.25 13 16.25H10.75V13.96C10.5 13.99 10.25 14 10 14C9.75 14 9.5 13.99 9.25 13.96V16.25H7C5.9 16.25 5 17.15 5 18.25V18.5H4C3.59 18.5 3.25 18.84 3.25 19.25C3.25 19.66 3.59 20 4 20H16C16.41 20 16.75 19.66 16.75 19.25C16.75 18.84 16.41 18.5 16 18.5Z" fill="#FCB827"/>
<path opacity="0.4" d="M3.51979 9.64C2.85979 9.39 2.27979 8.98 1.81979 8.52C0.889785 7.49 0.279785 6.26 0.279785 4.82C0.279785 3.38 1.40979 2.25 2.84979 2.25H3.40979C3.14979 2.78 2.99979 3.37 2.99979 4V7C2.99979 7.94 3.17979 8.83 3.51979 9.64Z" fill="#FCB827"/>
<path opacity="0.4" d="M19.72 4.82C19.72 6.26 19.11 7.49 18.18 8.52C17.72 8.98 17.14 9.39 16.48 9.64C16.82 8.83 17 7.94 17 7V4C17 3.37 16.85 2.78 16.59 2.25H17.15C18.59 2.25 19.72 3.38 19.72 4.82Z" fill="#FCB827"/>
<path d="M13 0H7C4.79 0 3 1.79 3 4V7C3 10.87 6.13 14 10 14C13.87 14 17 10.87 17 7V4C17 1.79 15.21 0 13 0ZM12.84 6.45L12.22 7.21C12.12 7.32 12.05 7.54 12.06 7.69L12.12 8.67C12.16 9.27 11.73 9.58 11.17 9.36L10.26 9C10.12 8.95 9.88 8.95 9.74 9L8.83 9.36C8.27 9.58 7.84 9.27 7.88 8.67L7.94 7.69C7.95 7.54 7.88 7.32 7.78 7.21L7.16 6.45C6.77 5.99 6.94 5.48 7.52 5.33L8.47 5.09C8.62 5.05 8.8 4.91 8.88 4.78L9.41 3.96C9.74 3.45 10.26 3.45 10.59 3.96L11.12 4.78C11.2 4.91 11.38 5.05 11.53 5.09L12.48 5.33C13.06 5.48 13.23 5.99 12.84 6.45Z" fill="#FCB827"/>
<path opacity="0.4" d="M12.8397 6.44965L12.2197 7.20965C12.1197 7.31965 12.0497 7.53965 12.0597 7.68965L12.1197 8.66965C12.1597 9.26965 11.7297 9.57965 11.1697 9.35965L10.2597 8.99965C10.1197 8.94965 9.87975 8.94965 9.73975 8.99965L8.82975 9.35965C8.26975 9.57965 7.83975 9.26965 7.87975 8.66965L7.93975 7.68965C7.94975 7.53965 7.87975 7.31965 7.77975 7.20965L7.15975 6.44965C6.76975 5.98965 6.93975 5.47965 7.51975 5.32965L8.46975 5.08965C8.61975 5.04965 8.79975 4.90965 8.87975 4.77965L9.40975 3.95965C9.73975 3.44965 10.2597 3.44965 10.5897 3.95965L11.1197 4.77965C11.1997 4.90965 11.3797 5.04965 11.5297 5.08965L12.4797 5.32965C13.0597 5.47965 13.2297 5.98965 12.8397 6.44965Z" fill="#FCB827"/>
</svg>
