<svg width="251" height="47" viewBox="0 0 251 47" fill="none" xmlns="http://www.w3.org/2000/svg">
<path d="M13.248 35.904C12.8 35.904 12.528 35.712 12.432 35.328L0.048 1.536C0.016 1.472 0 1.376 0 1.248C0 0.863999 0.224 0.672 0.672 0.672H9.312C9.792 0.672 10.08 0.88 10.176 1.296L16.464 21.072L22.608 1.296C22.736 0.88 23.024 0.672 23.472 0.672H29.424C29.84 0.672 30.112 0.88 30.24 1.296L36.864 21.12L42.672 1.296C42.8 0.88 43.088 0.672 43.536 0.672H52.032C52.288 0.672 52.48 0.768 52.608 0.959999C52.736 1.12 52.752 1.312 52.656 1.536L40.272 35.328C40.144 35.712 39.856 35.904 39.408 35.904H33.408C32.992 35.904 32.72 35.696 32.592 35.28L26.352 15.12L20.064 35.28C19.968 35.696 19.696 35.904 19.248 35.904H13.248Z" fill="#333333"/>
<path d="M68.8319 36.384C66.1759 36.384 63.8399 35.824 61.8239 34.704C59.8079 33.584 58.2399 32.032 57.1199 30.048C56.0319 28.032 55.4879 25.728 55.4879 23.136C55.4879 20.544 56.0319 18.256 57.1199 16.272C58.2399 14.288 59.8079 12.736 61.8239 11.616C63.8399 10.496 66.1759 9.936 68.8319 9.936C71.6159 9.936 73.9839 10.56 75.9359 11.808C77.8879 13.024 79.3279 14.736 80.2559 16.944C81.2159 19.152 81.6159 21.712 81.4559 24.624C81.4239 25.104 81.1519 25.344 80.6399 25.344H64.2239C64.5439 26.592 65.1039 27.552 65.9039 28.224C66.7039 28.896 67.6959 29.232 68.8799 29.232C70.7999 29.232 72.2079 28.624 73.1039 27.408C73.3919 27.088 73.7279 26.976 74.1119 27.072L80.2559 29.136C80.5759 29.296 80.7359 29.504 80.7359 29.76L80.6399 30.144C79.5199 32.224 77.9039 33.792 75.7919 34.848C73.7119 35.872 71.3919 36.384 68.8319 36.384ZM68.7359 16.704C67.5199 16.704 66.5279 17.04 65.7599 17.712C64.9919 18.384 64.4799 19.36 64.2239 20.64H72.9599C72.7039 19.36 72.2079 18.384 71.4719 17.712C70.7679 17.04 69.8559 16.704 68.7359 16.704Z" fill="#333333"/>
<path d="M101.469 36.576C98.1091 36.576 95.2451 35.776 92.8771 34.176C90.5411 32.544 88.8771 30.224 87.8851 27.216C87.8531 27.152 87.8371 27.056 87.8371 26.928C87.8371 26.576 88.0291 26.352 88.4131 26.256L95.0851 24.624L95.3251 24.576C95.6451 24.576 95.8851 24.752 96.0451 25.104C96.5571 26.352 97.2611 27.264 98.1571 27.84C99.0851 28.416 100.269 28.704 101.709 28.704C102.893 28.704 103.837 28.512 104.541 28.128C105.245 27.712 105.597 27.104 105.597 26.304C105.597 25.472 105.245 24.8 104.541 24.288C103.869 23.744 102.733 23.184 101.133 22.608L97.4851 21.312C94.7011 20.352 92.5411 18.976 91.0051 17.184C89.4691 15.392 88.7011 13.232 88.7011 10.704C88.7011 8.656 89.2611 6.816 90.3811 5.184C91.5011 3.552 93.0211 2.288 94.9411 1.392C96.8611 0.464 98.9891 0 101.325 0C104.365 0 106.973 0.72 109.149 2.16C111.357 3.6 112.941 5.776 113.901 8.688C113.933 8.752 113.949 8.864 113.949 9.024C113.949 9.344 113.773 9.552 113.421 9.648L106.413 11.52C106.349 11.552 106.253 11.568 106.125 11.568C105.837 11.568 105.613 11.392 105.453 11.04C104.941 9.856 104.333 9.04 103.629 8.592C102.957 8.112 102.141 7.872 101.181 7.872C100.189 7.872 99.3731 8.08 98.7331 8.496C98.1251 8.912 97.8211 9.488 97.8211 10.224C97.8211 10.96 98.1891 11.616 98.9251 12.192C99.6611 12.736 100.925 13.312 102.717 13.92L105.357 14.784C108.557 15.872 110.909 17.28 112.413 19.008C113.917 20.736 114.669 23.024 114.669 25.872C114.669 27.92 114.109 29.76 112.989 31.392C111.869 33.024 110.301 34.304 108.285 35.232C106.301 36.128 104.029 36.576 101.469 36.576Z" fill="#94B044"/>
<path d="M123.443 46.368C122.931 46.368 122.674 46.112 122.674 45.6V11.136C122.674 10.912 122.739 10.736 122.867 10.608C123.027 10.48 123.219 10.416 123.443 10.416H129.443C129.987 10.416 130.258 10.656 130.258 11.136L130.355 13.392C132.243 11.088 134.786 9.936 137.986 9.936C140.322 9.936 142.386 10.496 144.178 11.616C145.97 12.704 147.363 14.24 148.355 16.224C149.347 18.208 149.842 20.512 149.842 23.136C149.842 25.76 149.347 28.08 148.355 30.096C147.363 32.08 145.97 33.632 144.178 34.752C142.386 35.84 140.322 36.384 137.986 36.384C135.33 36.384 133.107 35.568 131.314 33.936V45.6C131.314 46.112 131.059 46.368 130.547 46.368H123.443ZM135.874 28.8C137.443 28.8 138.706 28.272 139.667 27.216C140.627 26.16 141.107 24.8 141.107 23.136C141.107 21.472 140.627 20.128 139.667 19.104C138.706 18.048 137.443 17.52 135.874 17.52C134.307 17.52 133.043 18.048 132.083 19.104C131.122 20.128 130.643 21.472 130.643 23.136C130.643 24.8 131.122 26.16 132.083 27.216C133.043 28.272 134.307 28.8 135.874 28.8Z" fill="#94B044"/>
<path d="M168.688 36.384C166.352 36.384 164.288 35.84 162.496 34.752C160.704 33.632 159.312 32.08 158.32 30.096C157.328 28.08 156.832 25.76 156.832 23.136C156.832 20.512 157.328 18.208 158.32 16.224C159.312 14.24 160.704 12.704 162.496 11.616C164.288 10.496 166.352 9.936 168.688 9.936C171.888 9.936 174.432 11.088 176.32 13.392L176.416 11.136C176.416 10.912 176.48 10.736 176.608 10.608C176.768 10.48 176.96 10.416 177.184 10.416H183.232C183.456 10.416 183.632 10.48 183.76 10.608C183.92 10.736 184 10.912 184 11.136V35.136C184 35.648 183.744 35.904 183.232 35.904H177.184C176.96 35.904 176.768 35.84 176.608 35.712C176.48 35.552 176.416 35.36 176.416 35.136L176.32 32.88C174.432 35.216 171.888 36.384 168.688 36.384ZM170.8 28.8C172.368 28.8 173.632 28.272 174.592 27.216C175.552 26.16 176.032 24.8 176.032 23.136C176.032 21.472 175.552 20.128 174.592 19.104C173.632 18.048 172.368 17.52 170.8 17.52C169.232 17.52 167.968 18.048 167.008 19.104C166.048 20.128 165.568 21.472 165.568 23.136C165.568 24.8 166.048 26.16 167.008 27.216C167.968 28.272 169.232 28.8 170.8 28.8Z" fill="#94B044"/>
<path d="M205.485 36.384C202.829 36.384 200.493 35.84 198.477 34.752C196.493 33.632 194.957 32.08 193.869 30.096C192.813 28.08 192.285 25.76 192.285 23.136C192.285 20.544 192.813 18.256 193.869 16.272C194.957 14.256 196.493 12.704 198.477 11.616C200.493 10.496 202.829 9.936 205.485 9.936C208.461 9.936 211.005 10.576 213.117 11.856C215.229 13.136 216.733 15.104 217.629 17.76C217.661 17.824 217.677 17.92 217.677 18.048C217.677 18.4 217.485 18.624 217.101 18.72L211.149 20.4L210.909 20.448C210.589 20.448 210.333 20.272 210.141 19.92C209.277 18.32 207.885 17.52 205.965 17.52C204.397 17.52 203.181 18.048 202.317 19.104C201.485 20.128 201.069 21.472 201.069 23.136C201.069 24.8 201.485 26.16 202.317 27.216C203.181 28.272 204.397 28.8 205.965 28.8C206.893 28.8 207.725 28.592 208.461 28.176C209.197 27.76 209.757 27.12 210.141 26.256C210.397 25.808 210.717 25.632 211.101 25.728L217.581 27.36C217.837 27.392 217.997 27.504 218.061 27.696C218.157 27.856 218.157 28.064 218.061 28.32C217.101 30.976 215.501 32.992 213.261 34.368C211.053 35.712 208.461 36.384 205.485 36.384Z" fill="#94B044"/>
<path d="M238.129 36.384C235.473 36.384 233.137 35.824 231.121 34.704C229.105 33.584 227.537 32.032 226.417 30.048C225.329 28.032 224.785 25.728 224.785 23.136C224.785 20.544 225.329 18.256 226.417 16.272C227.537 14.288 229.105 12.736 231.121 11.616C233.137 10.496 235.473 9.936 238.129 9.936C240.913 9.936 243.281 10.56 245.233 11.808C247.185 13.024 248.625 14.736 249.553 16.944C250.513 19.152 250.913 21.712 250.753 24.624C250.721 25.104 250.449 25.344 249.937 25.344H233.521C233.841 26.592 234.401 27.552 235.201 28.224C236.001 28.896 236.993 29.232 238.177 29.232C240.097 29.232 241.505 28.624 242.401 27.408C242.689 27.088 243.025 26.976 243.409 27.072L249.553 29.136C249.873 29.296 250.033 29.504 250.033 29.76L249.937 30.144C248.817 32.224 247.201 33.792 245.089 34.848C243.009 35.872 240.689 36.384 238.129 36.384ZM238.033 16.704C236.817 16.704 235.825 17.04 235.057 17.712C234.289 18.384 233.777 19.36 233.521 20.64H242.257C242.001 19.36 241.505 18.384 240.769 17.712C240.065 17.04 239.153 16.704 238.033 16.704Z" fill="#94B044"/>
</svg>
